<svg id="Layer_1" data-name="Layer 1" xmlns="http://www.w3.org/2000/svg" viewBox="0 0 232.25 478"><defs><style>.cls-1{fill:#38c6e5;}</style></defs><path className="cls-1" d="M371.92,316.11c-1.58-19.95-12.39-39.26-29.16-49.61-5.13-3.17-11.74-8.14-9.29-13.76,1.13-2.62,3.91-4,6.38-5.29,23.64-12.74,35.24-43.56,29.39-70.32-8.71-39.78-46.81-56.38-77.58-75.34C252,77.35,211.53,54.31,170.8,31.78c-2.91-1.61-26.92-12.47-26.87-14.78l-1.88,96c-.43,22.22-.85,44.65,3.41,66.44s13.64,43.19,29.93,57.81c7.65,6.86,17.4,12.25,27.5,11.23,6.23-.63,12-3.63,17.45-6.76a282.43,282.43,0,0,0,24.1-15.47c2.24-1.61,4.56-3.36,5.75-5.89,2.65-5.62-1.48-12.42-6.76-15.51s-11.53-3.85-17.12-6.28c-11.7-5.09-19.44-17.12-22.78-29.71S200.62,143,201.08,130c.08-2.44.3-5.17,2.12-6.73,2.59-2.23,6.49-.62,9.45,1.06q43.08,24.45,84.82,51.32c5.56,3.58,11.71,8.18,12.16,14.92.55,8.15-7.4,13.87-14.35,17.83l-76.06,43.31C192.36,267,164,283.83,150.13,312c-16.54,33.61-8,73.72-8.34,111.39-.16,19.71-2.85,39.46-.84,59.06.52,5.05,2.19,11.08,7,12.34,3.42.9,6.85-1.15,9.82-3.11Q226.87,446.16,299,405.79c14.76-8.25,29.72-16.41,42.69-27.39s24-25.13,28.42-41.79A61.06,61.06,0,0,0,371.92,316.11ZM309.7,327.4c-18.5,19.66-47.34,28.57-69.5,43.89-13.83,4.72-47,38.88-40.42,4.09-4.94-54.69,21-55.82,59.25-81.21C272.57,290.08,316.75,306.73,309.7,327.4Z" transform="translate(-139.88 -17)"/></svg>